<mxfile host="app.diagrams.net" modified="2023-06-23T09:39:14.303Z" agent="Mozilla/5.0 (Windows NT 10.0; Win64; x64) AppleWebKit/537.36 (KHTML, like Gecko) Chrome/114.0.0.0 Safari/537.36" etag="W169KL7dC7gmFO92P_5U" version="21.3.4" type="github" pages="4">
  <diagram name="dfd-lv0" id="YjifHDLL1rr4hs6oNrvI">
    <mxGraphModel dx="1050" dy="1673" grid="1" gridSize="10" guides="1" tooltips="1" connect="1" arrows="1" fold="1" page="1" pageScale="1" pageWidth="850" pageHeight="1100" math="0" shadow="0">
      <root>
        <mxCell id="0" />
        <mxCell id="1" parent="0" />
        <mxCell id="y4NhSWoK6Al0sYdnm1e4-1" value="E Commerce" style="ellipse;whiteSpace=wrap;html=1;" vertex="1" parent="1">
          <mxGeometry x="317" y="200" width="210" height="120" as="geometry" />
        </mxCell>
        <mxCell id="y4NhSWoK6Al0sYdnm1e4-2" value="Customers" style="rounded=0;whiteSpace=wrap;html=1;" vertex="1" parent="1">
          <mxGeometry y="210" width="190" height="90" as="geometry" />
        </mxCell>
        <mxCell id="y4NhSWoK6Al0sYdnm1e4-3" value="Sellers" style="rounded=0;whiteSpace=wrap;html=1;" vertex="1" parent="1">
          <mxGeometry x="680" y="210" width="190" height="90" as="geometry" />
        </mxCell>
        <mxCell id="y4NhSWoK6Al0sYdnm1e4-4" value="Logistics Service" style="rounded=0;whiteSpace=wrap;html=1;" vertex="1" parent="1">
          <mxGeometry x="327" y="500" width="190" height="90" as="geometry" />
        </mxCell>
        <mxCell id="y4NhSWoK6Al0sYdnm1e4-5" value="" style="endArrow=classic;html=1;rounded=0;exitX=1;exitY=0.25;exitDx=0;exitDy=0;entryX=0;entryY=0;entryDx=0;entryDy=0;" edge="1" parent="1" source="y4NhSWoK6Al0sYdnm1e4-2" target="y4NhSWoK6Al0sYdnm1e4-1">
          <mxGeometry width="50" height="50" relative="1" as="geometry">
            <mxPoint x="400" y="400" as="sourcePoint" />
            <mxPoint x="450" y="350" as="targetPoint" />
          </mxGeometry>
        </mxCell>
        <mxCell id="y4NhSWoK6Al0sYdnm1e4-6" value="Pembelian Barang, pembayaran pesanan" style="text;html=1;strokeColor=none;fillColor=none;align=center;verticalAlign=middle;whiteSpace=wrap;rounded=0;" vertex="1" parent="1">
          <mxGeometry x="217" y="170" width="110" height="30" as="geometry" />
        </mxCell>
        <mxCell id="y4NhSWoK6Al0sYdnm1e4-7" value="" style="endArrow=classic;html=1;rounded=0;exitX=0;exitY=1;exitDx=0;exitDy=0;entryX=1;entryY=0.75;entryDx=0;entryDy=0;" edge="1" parent="1" source="y4NhSWoK6Al0sYdnm1e4-1" target="y4NhSWoK6Al0sYdnm1e4-2">
          <mxGeometry width="50" height="50" relative="1" as="geometry">
            <mxPoint x="400" y="400" as="sourcePoint" />
            <mxPoint x="450" y="350" as="targetPoint" />
          </mxGeometry>
        </mxCell>
        <mxCell id="y4NhSWoK6Al0sYdnm1e4-8" value="Informasi produk, pembelian, dan pengiriman" style="text;html=1;strokeColor=none;fillColor=none;align=center;verticalAlign=middle;whiteSpace=wrap;rounded=0;" vertex="1" parent="1">
          <mxGeometry x="210" y="320" width="100" height="30" as="geometry" />
        </mxCell>
        <mxCell id="y4NhSWoK6Al0sYdnm1e4-9" value="" style="endArrow=classic;html=1;rounded=0;exitX=0;exitY=0.25;exitDx=0;exitDy=0;entryX=1;entryY=0;entryDx=0;entryDy=0;" edge="1" parent="1" source="y4NhSWoK6Al0sYdnm1e4-3" target="y4NhSWoK6Al0sYdnm1e4-1">
          <mxGeometry width="50" height="50" relative="1" as="geometry">
            <mxPoint x="400" y="400" as="sourcePoint" />
            <mxPoint x="450" y="350" as="targetPoint" />
          </mxGeometry>
        </mxCell>
        <mxCell id="y4NhSWoK6Al0sYdnm1e4-10" value="" style="endArrow=classic;html=1;rounded=0;exitX=1;exitY=1;exitDx=0;exitDy=0;entryX=0;entryY=0.75;entryDx=0;entryDy=0;" edge="1" parent="1" source="y4NhSWoK6Al0sYdnm1e4-1" target="y4NhSWoK6Al0sYdnm1e4-3">
          <mxGeometry width="50" height="50" relative="1" as="geometry">
            <mxPoint x="400" y="400" as="sourcePoint" />
            <mxPoint x="450" y="350" as="targetPoint" />
          </mxGeometry>
        </mxCell>
        <mxCell id="y4NhSWoK6Al0sYdnm1e4-11" value="Publish produk, konfirmasi pesanan" style="text;html=1;strokeColor=none;fillColor=none;align=center;verticalAlign=middle;whiteSpace=wrap;rounded=0;" vertex="1" parent="1">
          <mxGeometry x="540" y="170" width="110" height="30" as="geometry" />
        </mxCell>
        <mxCell id="y4NhSWoK6Al0sYdnm1e4-13" value="Informasi produk, pemesanan, dan pengiriman" style="text;html=1;strokeColor=none;fillColor=none;align=center;verticalAlign=middle;whiteSpace=wrap;rounded=0;" vertex="1" parent="1">
          <mxGeometry x="540" y="320" width="110" height="30" as="geometry" />
        </mxCell>
        <mxCell id="y4NhSWoK6Al0sYdnm1e4-14" value="" style="endArrow=classic;html=1;rounded=0;exitX=0.5;exitY=1;exitDx=0;exitDy=0;entryX=0.75;entryY=0;entryDx=0;entryDy=0;" edge="1" parent="1" source="y4NhSWoK6Al0sYdnm1e4-1" target="y4NhSWoK6Al0sYdnm1e4-4">
          <mxGeometry width="50" height="50" relative="1" as="geometry">
            <mxPoint x="400" y="410" as="sourcePoint" />
            <mxPoint x="450" y="360" as="targetPoint" />
          </mxGeometry>
        </mxCell>
        <mxCell id="y4NhSWoK6Al0sYdnm1e4-15" value="" style="endArrow=classic;html=1;rounded=0;exitX=0.25;exitY=0;exitDx=0;exitDy=0;entryX=0.5;entryY=1;entryDx=0;entryDy=0;" edge="1" parent="1" source="y4NhSWoK6Al0sYdnm1e4-4" target="y4NhSWoK6Al0sYdnm1e4-1">
          <mxGeometry width="50" height="50" relative="1" as="geometry">
            <mxPoint x="400" y="410" as="sourcePoint" />
            <mxPoint x="450" y="360" as="targetPoint" />
          </mxGeometry>
        </mxCell>
        <mxCell id="y4NhSWoK6Al0sYdnm1e4-16" value="Input resi dan informasi pengiriman" style="text;html=1;strokeColor=none;fillColor=none;align=center;verticalAlign=middle;whiteSpace=wrap;rounded=0;" vertex="1" parent="1">
          <mxGeometry x="270" y="410" width="100" height="30" as="geometry" />
        </mxCell>
        <mxCell id="y4NhSWoK6Al0sYdnm1e4-17" value="Informasi pesanan dan pengiriman" style="text;html=1;strokeColor=none;fillColor=none;align=center;verticalAlign=middle;whiteSpace=wrap;rounded=0;" vertex="1" parent="1">
          <mxGeometry x="480" y="410" width="100" height="30" as="geometry" />
        </mxCell>
        <mxCell id="m_3wa665jurI4lrlJ9zm-3" style="endArrow=classic;html=1;rounded=0;exitX=0.25;exitY=1;exitDx=0;exitDy=0;entryX=0.5;entryY=0;entryDx=0;entryDy=0;" edge="1" parent="1" source="m_3wa665jurI4lrlJ9zm-1" target="y4NhSWoK6Al0sYdnm1e4-1">
          <mxGeometry relative="1" as="geometry" />
        </mxCell>
        <mxCell id="m_3wa665jurI4lrlJ9zm-4" style="endArrow=classic;html=1;rounded=0;exitX=0.5;exitY=0;exitDx=0;exitDy=0;entryX=0.75;entryY=1;entryDx=0;entryDy=0;" edge="1" parent="1" source="y4NhSWoK6Al0sYdnm1e4-1" target="m_3wa665jurI4lrlJ9zm-1">
          <mxGeometry relative="1" as="geometry" />
        </mxCell>
        <mxCell id="m_3wa665jurI4lrlJ9zm-1" value="Payment Gateway" style="rounded=0;whiteSpace=wrap;html=1;" vertex="1" parent="1">
          <mxGeometry x="327" y="-80" width="190" height="90" as="geometry" />
        </mxCell>
        <mxCell id="m_3wa665jurI4lrlJ9zm-5" value="Notifikasi Pembayaran" style="text;html=1;strokeColor=none;fillColor=none;align=center;verticalAlign=middle;whiteSpace=wrap;rounded=0;" vertex="1" parent="1">
          <mxGeometry x="300" y="70" width="60" height="30" as="geometry" />
        </mxCell>
        <mxCell id="m_3wa665jurI4lrlJ9zm-8" value="Informasi transaksi dan pemesanan" style="text;html=1;strokeColor=none;fillColor=none;align=center;verticalAlign=middle;whiteSpace=wrap;rounded=0;" vertex="1" parent="1">
          <mxGeometry x="470" y="70" width="100" height="50" as="geometry" />
        </mxCell>
      </root>
    </mxGraphModel>
  </diagram>
  <diagram id="Pbt7DA0ahKIZWVjzOZp7" name="dfd-lv1">
    <mxGraphModel dx="1105" dy="603" grid="1" gridSize="10" guides="1" tooltips="1" connect="1" arrows="1" fold="1" page="1" pageScale="1" pageWidth="850" pageHeight="1100" math="0" shadow="0">
      <root>
        <mxCell id="0" />
        <mxCell id="1" parent="0" />
        <mxCell id="bvj7ld4E0glaIvTmwzIj-6" value="" style="edgeStyle=orthogonalEdgeStyle;rounded=0;orthogonalLoop=1;jettySize=auto;html=1;" edge="1" parent="1" source="bvj7ld4E0glaIvTmwzIj-1" target="bvj7ld4E0glaIvTmwzIj-5">
          <mxGeometry relative="1" as="geometry" />
        </mxCell>
        <mxCell id="bvj7ld4E0glaIvTmwzIj-1" value="E-Commerce" style="ellipse;whiteSpace=wrap;html=1;" vertex="1" parent="1">
          <mxGeometry x="290" y="160" width="160" height="90" as="geometry" />
        </mxCell>
        <mxCell id="bvj7ld4E0glaIvTmwzIj-2" value="Sellers" style="rounded=0;whiteSpace=wrap;html=1;" vertex="1" parent="1">
          <mxGeometry x="30" y="175" width="120" height="60" as="geometry" />
        </mxCell>
        <mxCell id="bvj7ld4E0glaIvTmwzIj-3" value="" style="endArrow=classic;html=1;rounded=0;exitX=1;exitY=0.5;exitDx=0;exitDy=0;entryX=0;entryY=0.5;entryDx=0;entryDy=0;" edge="1" parent="1" source="bvj7ld4E0glaIvTmwzIj-2" target="bvj7ld4E0glaIvTmwzIj-1">
          <mxGeometry width="50" height="50" relative="1" as="geometry">
            <mxPoint x="400" y="260" as="sourcePoint" />
            <mxPoint x="450" y="210" as="targetPoint" />
          </mxGeometry>
        </mxCell>
        <mxCell id="bvj7ld4E0glaIvTmwzIj-4" value="Input produk dan stok" style="text;html=1;strokeColor=none;fillColor=none;align=center;verticalAlign=middle;whiteSpace=wrap;rounded=0;" vertex="1" parent="1">
          <mxGeometry x="160" y="150" width="110" height="30" as="geometry" />
        </mxCell>
        <mxCell id="bvj7ld4E0glaIvTmwzIj-7" style="edgeStyle=orthogonalEdgeStyle;rounded=0;orthogonalLoop=1;jettySize=auto;html=1;entryX=0.5;entryY=1;entryDx=0;entryDy=0;" edge="1" parent="1" source="bvj7ld4E0glaIvTmwzIj-5" target="bvj7ld4E0glaIvTmwzIj-2">
          <mxGeometry relative="1" as="geometry" />
        </mxCell>
        <mxCell id="bvj7ld4E0glaIvTmwzIj-10" style="edgeStyle=orthogonalEdgeStyle;rounded=0;orthogonalLoop=1;jettySize=auto;html=1;entryX=0;entryY=0.5;entryDx=0;entryDy=0;" edge="1" parent="1" source="bvj7ld4E0glaIvTmwzIj-5" target="bvj7ld4E0glaIvTmwzIj-9">
          <mxGeometry relative="1" as="geometry" />
        </mxCell>
        <mxCell id="bvj7ld4E0glaIvTmwzIj-5" value="Data Produk" style="shape=process;whiteSpace=wrap;html=1;backgroundOutline=1;" vertex="1" parent="1">
          <mxGeometry x="280" y="360" width="180" height="70" as="geometry" />
        </mxCell>
        <mxCell id="bvj7ld4E0glaIvTmwzIj-8" value="Informasi produk dan stok" style="text;html=1;strokeColor=none;fillColor=none;align=center;verticalAlign=middle;whiteSpace=wrap;rounded=0;" vertex="1" parent="1">
          <mxGeometry x="120" y="350" width="120" height="30" as="geometry" />
        </mxCell>
        <mxCell id="bvj7ld4E0glaIvTmwzIj-9" value="Customers" style="rounded=0;whiteSpace=wrap;html=1;" vertex="1" parent="1">
          <mxGeometry x="630" y="365" width="120" height="60" as="geometry" />
        </mxCell>
        <mxCell id="bvj7ld4E0glaIvTmwzIj-11" value="Informasi produk dan stok" style="text;html=1;strokeColor=none;fillColor=none;align=center;verticalAlign=middle;whiteSpace=wrap;rounded=0;" vertex="1" parent="1">
          <mxGeometry x="487" y="350" width="120" height="30" as="geometry" />
        </mxCell>
        <mxCell id="bvj7ld4E0glaIvTmwzIj-15" value="" style="edgeStyle=orthogonalEdgeStyle;rounded=0;orthogonalLoop=1;jettySize=auto;html=1;" edge="1" parent="1" source="bvj7ld4E0glaIvTmwzIj-16" target="bvj7ld4E0glaIvTmwzIj-22">
          <mxGeometry relative="1" as="geometry" />
        </mxCell>
        <mxCell id="bvj7ld4E0glaIvTmwzIj-16" value="E-Commerce" style="ellipse;whiteSpace=wrap;html=1;" vertex="1" parent="1">
          <mxGeometry x="300" y="820" width="160" height="90" as="geometry" />
        </mxCell>
        <mxCell id="bvj7ld4E0glaIvTmwzIj-17" value="Customers" style="rounded=0;whiteSpace=wrap;html=1;" vertex="1" parent="1">
          <mxGeometry x="40" y="835" width="120" height="60" as="geometry" />
        </mxCell>
        <mxCell id="bvj7ld4E0glaIvTmwzIj-18" value="" style="endArrow=classic;html=1;rounded=0;exitX=1;exitY=0.5;exitDx=0;exitDy=0;entryX=0;entryY=0.5;entryDx=0;entryDy=0;" edge="1" parent="1" source="bvj7ld4E0glaIvTmwzIj-17" target="bvj7ld4E0glaIvTmwzIj-16">
          <mxGeometry width="50" height="50" relative="1" as="geometry">
            <mxPoint x="410" y="920" as="sourcePoint" />
            <mxPoint x="460" y="870" as="targetPoint" />
          </mxGeometry>
        </mxCell>
        <mxCell id="bvj7ld4E0glaIvTmwzIj-19" value="Melakukan Pembayaran" style="text;html=1;strokeColor=none;fillColor=none;align=center;verticalAlign=middle;whiteSpace=wrap;rounded=0;" vertex="1" parent="1">
          <mxGeometry x="180" y="820" width="110" height="30" as="geometry" />
        </mxCell>
        <mxCell id="bvj7ld4E0glaIvTmwzIj-20" style="edgeStyle=orthogonalEdgeStyle;rounded=0;orthogonalLoop=1;jettySize=auto;html=1;entryX=0.5;entryY=1;entryDx=0;entryDy=0;" edge="1" parent="1" source="bvj7ld4E0glaIvTmwzIj-22" target="bvj7ld4E0glaIvTmwzIj-17">
          <mxGeometry relative="1" as="geometry" />
        </mxCell>
        <mxCell id="bvj7ld4E0glaIvTmwzIj-26" style="edgeStyle=orthogonalEdgeStyle;rounded=0;orthogonalLoop=1;jettySize=auto;html=1;entryX=0.5;entryY=1;entryDx=0;entryDy=0;" edge="1" parent="1" source="bvj7ld4E0glaIvTmwzIj-22" target="bvj7ld4E0glaIvTmwzIj-24">
          <mxGeometry relative="1" as="geometry" />
        </mxCell>
        <mxCell id="bvj7ld4E0glaIvTmwzIj-22" value="Data Pembayaran" style="shape=process;whiteSpace=wrap;html=1;backgroundOutline=1;" vertex="1" parent="1">
          <mxGeometry x="290" y="1020" width="180" height="70" as="geometry" />
        </mxCell>
        <mxCell id="bvj7ld4E0glaIvTmwzIj-23" value="Informasi Pembayaran" style="text;html=1;strokeColor=none;fillColor=none;align=center;verticalAlign=middle;whiteSpace=wrap;rounded=0;" vertex="1" parent="1">
          <mxGeometry x="130" y="1010" width="120" height="30" as="geometry" />
        </mxCell>
        <mxCell id="bvj7ld4E0glaIvTmwzIj-28" style="edgeStyle=orthogonalEdgeStyle;rounded=0;orthogonalLoop=1;jettySize=auto;html=1;entryX=1;entryY=0.5;entryDx=0;entryDy=0;" edge="1" parent="1" source="bvj7ld4E0glaIvTmwzIj-24" target="bvj7ld4E0glaIvTmwzIj-16">
          <mxGeometry relative="1" as="geometry" />
        </mxCell>
        <mxCell id="bvj7ld4E0glaIvTmwzIj-24" value="Sellers" style="rounded=0;whiteSpace=wrap;html=1;" vertex="1" parent="1">
          <mxGeometry x="630" y="835" width="120" height="60" as="geometry" />
        </mxCell>
        <mxCell id="bvj7ld4E0glaIvTmwzIj-27" value="Informasi Pembayaran dan Pemesanan" style="text;html=1;strokeColor=none;fillColor=none;align=center;verticalAlign=middle;whiteSpace=wrap;rounded=0;" vertex="1" parent="1">
          <mxGeometry x="530" y="1080" width="120" height="30" as="geometry" />
        </mxCell>
        <mxCell id="bvj7ld4E0glaIvTmwzIj-29" value="Konfirmasi Pesanan" style="text;html=1;strokeColor=none;fillColor=none;align=center;verticalAlign=middle;whiteSpace=wrap;rounded=0;" vertex="1" parent="1">
          <mxGeometry x="500" y="820" width="110" height="30" as="geometry" />
        </mxCell>
        <mxCell id="kWaNI6BAeDHWGY0laoI--26" value="" style="edgeStyle=orthogonalEdgeStyle;rounded=0;orthogonalLoop=1;jettySize=auto;html=1;" edge="1" parent="1" source="kWaNI6BAeDHWGY0laoI--27" target="kWaNI6BAeDHWGY0laoI--33">
          <mxGeometry relative="1" as="geometry" />
        </mxCell>
        <mxCell id="kWaNI6BAeDHWGY0laoI--27" value="E-Commerce" style="ellipse;whiteSpace=wrap;html=1;" vertex="1" parent="1">
          <mxGeometry x="289" y="500" width="160" height="90" as="geometry" />
        </mxCell>
        <mxCell id="kWaNI6BAeDHWGY0laoI--28" value="Customers" style="rounded=0;whiteSpace=wrap;html=1;" vertex="1" parent="1">
          <mxGeometry x="29" y="515" width="120" height="60" as="geometry" />
        </mxCell>
        <mxCell id="kWaNI6BAeDHWGY0laoI--29" value="" style="endArrow=classic;html=1;rounded=0;exitX=1;exitY=0.5;exitDx=0;exitDy=0;entryX=0;entryY=0.5;entryDx=0;entryDy=0;" edge="1" parent="1" source="kWaNI6BAeDHWGY0laoI--28" target="kWaNI6BAeDHWGY0laoI--27">
          <mxGeometry width="50" height="50" relative="1" as="geometry">
            <mxPoint x="399" y="600" as="sourcePoint" />
            <mxPoint x="449" y="550" as="targetPoint" />
          </mxGeometry>
        </mxCell>
        <mxCell id="kWaNI6BAeDHWGY0laoI--30" value="Melakukan Pemesanan" style="text;html=1;strokeColor=none;fillColor=none;align=center;verticalAlign=middle;whiteSpace=wrap;rounded=0;" vertex="1" parent="1">
          <mxGeometry x="169" y="500" width="110" height="30" as="geometry" />
        </mxCell>
        <mxCell id="kWaNI6BAeDHWGY0laoI--31" style="edgeStyle=orthogonalEdgeStyle;rounded=0;orthogonalLoop=1;jettySize=auto;html=1;entryX=0.5;entryY=1;entryDx=0;entryDy=0;" edge="1" parent="1" source="kWaNI6BAeDHWGY0laoI--33" target="kWaNI6BAeDHWGY0laoI--28">
          <mxGeometry relative="1" as="geometry" />
        </mxCell>
        <mxCell id="kWaNI6BAeDHWGY0laoI--32" style="edgeStyle=orthogonalEdgeStyle;rounded=0;orthogonalLoop=1;jettySize=auto;html=1;entryX=0;entryY=0.5;entryDx=0;entryDy=0;" edge="1" parent="1" source="kWaNI6BAeDHWGY0laoI--33" target="kWaNI6BAeDHWGY0laoI--36">
          <mxGeometry relative="1" as="geometry" />
        </mxCell>
        <mxCell id="kWaNI6BAeDHWGY0laoI--33" value="Data Pemesanan" style="shape=process;whiteSpace=wrap;html=1;backgroundOutline=1;" vertex="1" parent="1">
          <mxGeometry x="279" y="700" width="180" height="70" as="geometry" />
        </mxCell>
        <mxCell id="kWaNI6BAeDHWGY0laoI--34" value="Informasi Pemesanan" style="text;html=1;strokeColor=none;fillColor=none;align=center;verticalAlign=middle;whiteSpace=wrap;rounded=0;" vertex="1" parent="1">
          <mxGeometry x="119" y="690" width="120" height="30" as="geometry" />
        </mxCell>
        <mxCell id="kWaNI6BAeDHWGY0laoI--36" value="Sellers" style="rounded=0;whiteSpace=wrap;html=1;" vertex="1" parent="1">
          <mxGeometry x="670" y="705" width="120" height="60" as="geometry" />
        </mxCell>
        <mxCell id="kWaNI6BAeDHWGY0laoI--37" value="Informasi Pemesanan" style="text;html=1;strokeColor=none;fillColor=none;align=center;verticalAlign=middle;whiteSpace=wrap;rounded=0;" vertex="1" parent="1">
          <mxGeometry x="509" y="690" width="120" height="30" as="geometry" />
        </mxCell>
        <mxCell id="kWaNI6BAeDHWGY0laoI--44" style="edgeStyle=orthogonalEdgeStyle;rounded=0;orthogonalLoop=1;jettySize=auto;html=1;" edge="1" parent="1" source="kWaNI6BAeDHWGY0laoI--43">
          <mxGeometry relative="1" as="geometry">
            <mxPoint x="690" y="1060" as="targetPoint" />
          </mxGeometry>
        </mxCell>
        <mxCell id="kWaNI6BAeDHWGY0laoI--43" value="Data Pemesanan" style="shape=process;whiteSpace=wrap;html=1;backgroundOutline=1;" vertex="1" parent="1">
          <mxGeometry x="290" y="1110" width="180" height="70" as="geometry" />
        </mxCell>
        <mxCell id="kWaNI6BAeDHWGY0laoI--56" value="" style="edgeStyle=orthogonalEdgeStyle;rounded=0;orthogonalLoop=1;jettySize=auto;html=1;" edge="1" parent="1" source="kWaNI6BAeDHWGY0laoI--57" target="kWaNI6BAeDHWGY0laoI--63">
          <mxGeometry relative="1" as="geometry" />
        </mxCell>
        <mxCell id="kWaNI6BAeDHWGY0laoI--57" value="E-Commerce" style="ellipse;whiteSpace=wrap;html=1;" vertex="1" parent="1">
          <mxGeometry x="300" y="1220" width="160" height="90" as="geometry" />
        </mxCell>
        <mxCell id="kWaNI6BAeDHWGY0laoI--58" value="Sellers" style="rounded=0;whiteSpace=wrap;html=1;" vertex="1" parent="1">
          <mxGeometry x="40" y="1235" width="120" height="60" as="geometry" />
        </mxCell>
        <mxCell id="kWaNI6BAeDHWGY0laoI--59" value="" style="endArrow=classic;html=1;rounded=0;exitX=1;exitY=0.5;exitDx=0;exitDy=0;entryX=0;entryY=0.5;entryDx=0;entryDy=0;" edge="1" parent="1" source="kWaNI6BAeDHWGY0laoI--58" target="kWaNI6BAeDHWGY0laoI--57">
          <mxGeometry width="50" height="50" relative="1" as="geometry">
            <mxPoint x="410" y="1320" as="sourcePoint" />
            <mxPoint x="460" y="1270" as="targetPoint" />
          </mxGeometry>
        </mxCell>
        <mxCell id="kWaNI6BAeDHWGY0laoI--60" value="Update status pemesanan" style="text;html=1;strokeColor=none;fillColor=none;align=center;verticalAlign=middle;whiteSpace=wrap;rounded=0;" vertex="1" parent="1">
          <mxGeometry x="180" y="1220" width="110" height="30" as="geometry" />
        </mxCell>
        <mxCell id="kWaNI6BAeDHWGY0laoI--61" style="edgeStyle=orthogonalEdgeStyle;rounded=0;orthogonalLoop=1;jettySize=auto;html=1;entryX=0.5;entryY=1;entryDx=0;entryDy=0;" edge="1" parent="1" source="kWaNI6BAeDHWGY0laoI--63" target="kWaNI6BAeDHWGY0laoI--58">
          <mxGeometry relative="1" as="geometry" />
        </mxCell>
        <mxCell id="kWaNI6BAeDHWGY0laoI--62" style="edgeStyle=orthogonalEdgeStyle;rounded=0;orthogonalLoop=1;jettySize=auto;html=1;entryX=0.5;entryY=1;entryDx=0;entryDy=0;" edge="1" parent="1" source="kWaNI6BAeDHWGY0laoI--63" target="kWaNI6BAeDHWGY0laoI--66">
          <mxGeometry relative="1" as="geometry" />
        </mxCell>
        <mxCell id="kWaNI6BAeDHWGY0laoI--63" value="Data Pemesanan" style="shape=process;whiteSpace=wrap;html=1;backgroundOutline=1;" vertex="1" parent="1">
          <mxGeometry x="290" y="1420" width="180" height="70" as="geometry" />
        </mxCell>
        <mxCell id="kWaNI6BAeDHWGY0laoI--64" value="Informasi Pemesanan&lt;br&gt;dan Pengiriman" style="text;html=1;strokeColor=none;fillColor=none;align=center;verticalAlign=middle;whiteSpace=wrap;rounded=0;" vertex="1" parent="1">
          <mxGeometry x="140" y="1480" width="120" height="30" as="geometry" />
        </mxCell>
        <mxCell id="kWaNI6BAeDHWGY0laoI--65" style="edgeStyle=orthogonalEdgeStyle;rounded=0;orthogonalLoop=1;jettySize=auto;html=1;entryX=1;entryY=0.5;entryDx=0;entryDy=0;" edge="1" parent="1" source="kWaNI6BAeDHWGY0laoI--66" target="kWaNI6BAeDHWGY0laoI--57">
          <mxGeometry relative="1" as="geometry" />
        </mxCell>
        <mxCell id="kWaNI6BAeDHWGY0laoI--66" value="Logistics Service" style="rounded=0;whiteSpace=wrap;html=1;" vertex="1" parent="1">
          <mxGeometry x="630" y="1235" width="120" height="60" as="geometry" />
        </mxCell>
        <mxCell id="kWaNI6BAeDHWGY0laoI--67" value="Input resi dan informasi pengiriman" style="text;html=1;strokeColor=none;fillColor=none;align=center;verticalAlign=middle;whiteSpace=wrap;rounded=0;" vertex="1" parent="1">
          <mxGeometry x="490" y="1220" width="120" height="30" as="geometry" />
        </mxCell>
        <mxCell id="kWaNI6BAeDHWGY0laoI--69" style="edgeStyle=orthogonalEdgeStyle;rounded=0;orthogonalLoop=1;jettySize=auto;html=1;" edge="1" parent="1" source="kWaNI6BAeDHWGY0laoI--68">
          <mxGeometry relative="1" as="geometry">
            <mxPoint x="690" y="1460" as="targetPoint" />
          </mxGeometry>
        </mxCell>
        <mxCell id="kWaNI6BAeDHWGY0laoI--70" style="edgeStyle=orthogonalEdgeStyle;rounded=0;orthogonalLoop=1;jettySize=auto;html=1;exitX=0;exitY=0.5;exitDx=0;exitDy=0;" edge="1" parent="1" source="kWaNI6BAeDHWGY0laoI--68">
          <mxGeometry relative="1" as="geometry">
            <mxPoint x="100" y="1470" as="targetPoint" />
          </mxGeometry>
        </mxCell>
        <mxCell id="kWaNI6BAeDHWGY0laoI--73" style="edgeStyle=orthogonalEdgeStyle;rounded=0;orthogonalLoop=1;jettySize=auto;html=1;entryX=0.5;entryY=0;entryDx=0;entryDy=0;" edge="1" parent="1" source="kWaNI6BAeDHWGY0laoI--68" target="kWaNI6BAeDHWGY0laoI--72">
          <mxGeometry relative="1" as="geometry" />
        </mxCell>
        <mxCell id="kWaNI6BAeDHWGY0laoI--68" value="Data Pengiriman" style="shape=process;whiteSpace=wrap;html=1;backgroundOutline=1;" vertex="1" parent="1">
          <mxGeometry x="290" y="1500" width="180" height="70" as="geometry" />
        </mxCell>
        <mxCell id="kWaNI6BAeDHWGY0laoI--71" value="Informasi Pemesanan&lt;br&gt;dan Pengiriman" style="text;html=1;strokeColor=none;fillColor=none;align=center;verticalAlign=middle;whiteSpace=wrap;rounded=0;" vertex="1" parent="1">
          <mxGeometry x="520" y="1480" width="120" height="30" as="geometry" />
        </mxCell>
        <mxCell id="kWaNI6BAeDHWGY0laoI--72" value="Customers" style="rounded=0;whiteSpace=wrap;html=1;" vertex="1" parent="1">
          <mxGeometry x="320" y="1660" width="120" height="60" as="geometry" />
        </mxCell>
        <mxCell id="kWaNI6BAeDHWGY0laoI--86" style="edgeStyle=orthogonalEdgeStyle;rounded=0;orthogonalLoop=1;jettySize=auto;html=1;entryX=0;entryY=0.5;entryDx=0;entryDy=0;" edge="1" parent="1" source="kWaNI6BAeDHWGY0laoI--75" target="kWaNI6BAeDHWGY0laoI--85">
          <mxGeometry relative="1" as="geometry" />
        </mxCell>
        <mxCell id="kWaNI6BAeDHWGY0laoI--75" value="E-Commerce" style="ellipse;whiteSpace=wrap;html=1;" vertex="1" parent="1">
          <mxGeometry x="300" y="1770" width="160" height="90" as="geometry" />
        </mxCell>
        <mxCell id="kWaNI6BAeDHWGY0laoI--76" value="Customers" style="rounded=0;whiteSpace=wrap;html=1;" vertex="1" parent="1">
          <mxGeometry x="40" y="1785" width="120" height="60" as="geometry" />
        </mxCell>
        <mxCell id="kWaNI6BAeDHWGY0laoI--77" value="" style="endArrow=classic;html=1;rounded=0;exitX=1;exitY=0.5;exitDx=0;exitDy=0;entryX=0;entryY=0.5;entryDx=0;entryDy=0;" edge="1" parent="1" source="kWaNI6BAeDHWGY0laoI--76" target="kWaNI6BAeDHWGY0laoI--75">
          <mxGeometry width="50" height="50" relative="1" as="geometry">
            <mxPoint x="410" y="1870" as="sourcePoint" />
            <mxPoint x="460" y="1820" as="targetPoint" />
          </mxGeometry>
        </mxCell>
        <mxCell id="kWaNI6BAeDHWGY0laoI--78" value="Konfirmasi Pesanan Sampai" style="text;html=1;strokeColor=none;fillColor=none;align=center;verticalAlign=middle;whiteSpace=wrap;rounded=0;" vertex="1" parent="1">
          <mxGeometry x="180" y="1770" width="110" height="30" as="geometry" />
        </mxCell>
        <mxCell id="kWaNI6BAeDHWGY0laoI--85" value="Sellers" style="rounded=0;whiteSpace=wrap;html=1;" vertex="1" parent="1">
          <mxGeometry x="604" y="1785" width="120" height="60" as="geometry" />
        </mxCell>
        <mxCell id="kWaNI6BAeDHWGY0laoI--87" value="Menambah Saldo" style="text;html=1;strokeColor=none;fillColor=none;align=center;verticalAlign=middle;whiteSpace=wrap;rounded=0;" vertex="1" parent="1">
          <mxGeometry x="470" y="1770" width="110" height="30" as="geometry" />
        </mxCell>
        <mxCell id="kWaNI6BAeDHWGY0laoI--88" value="" style="edgeStyle=orthogonalEdgeStyle;rounded=0;orthogonalLoop=1;jettySize=auto;html=1;" edge="1" parent="1" source="kWaNI6BAeDHWGY0laoI--89" target="kWaNI6BAeDHWGY0laoI--95">
          <mxGeometry relative="1" as="geometry" />
        </mxCell>
        <mxCell id="kWaNI6BAeDHWGY0laoI--89" value="E-Commerce" style="ellipse;whiteSpace=wrap;html=1;" vertex="1" parent="1">
          <mxGeometry x="310" y="1950" width="160" height="90" as="geometry" />
        </mxCell>
        <mxCell id="kWaNI6BAeDHWGY0laoI--90" value="Customers" style="rounded=0;whiteSpace=wrap;html=1;" vertex="1" parent="1">
          <mxGeometry x="50" y="1965" width="120" height="60" as="geometry" />
        </mxCell>
        <mxCell id="kWaNI6BAeDHWGY0laoI--91" value="" style="endArrow=classic;html=1;rounded=0;exitX=1;exitY=0.5;exitDx=0;exitDy=0;entryX=0;entryY=0.5;entryDx=0;entryDy=0;" edge="1" parent="1" source="kWaNI6BAeDHWGY0laoI--90" target="kWaNI6BAeDHWGY0laoI--89">
          <mxGeometry width="50" height="50" relative="1" as="geometry">
            <mxPoint x="420" y="2050" as="sourcePoint" />
            <mxPoint x="470" y="2000" as="targetPoint" />
          </mxGeometry>
        </mxCell>
        <mxCell id="kWaNI6BAeDHWGY0laoI--92" value="Return Pesanan" style="text;html=1;strokeColor=none;fillColor=none;align=center;verticalAlign=middle;whiteSpace=wrap;rounded=0;" vertex="1" parent="1">
          <mxGeometry x="190" y="1950" width="110" height="30" as="geometry" />
        </mxCell>
        <mxCell id="kWaNI6BAeDHWGY0laoI--93" style="edgeStyle=orthogonalEdgeStyle;rounded=0;orthogonalLoop=1;jettySize=auto;html=1;entryX=0.5;entryY=1;entryDx=0;entryDy=0;" edge="1" parent="1" source="kWaNI6BAeDHWGY0laoI--95" target="kWaNI6BAeDHWGY0laoI--90">
          <mxGeometry relative="1" as="geometry" />
        </mxCell>
        <mxCell id="kWaNI6BAeDHWGY0laoI--94" style="edgeStyle=orthogonalEdgeStyle;rounded=0;orthogonalLoop=1;jettySize=auto;html=1;entryX=0.5;entryY=1;entryDx=0;entryDy=0;" edge="1" parent="1" source="kWaNI6BAeDHWGY0laoI--95" target="kWaNI6BAeDHWGY0laoI--98">
          <mxGeometry relative="1" as="geometry" />
        </mxCell>
        <mxCell id="kWaNI6BAeDHWGY0laoI--95" value="Data Pemesanan" style="shape=process;whiteSpace=wrap;html=1;backgroundOutline=1;" vertex="1" parent="1">
          <mxGeometry x="300" y="2150" width="180" height="70" as="geometry" />
        </mxCell>
        <mxCell id="kWaNI6BAeDHWGY0laoI--96" value="Informasi Pemesanan&lt;br&gt;dan Pengiriman" style="text;html=1;strokeColor=none;fillColor=none;align=center;verticalAlign=middle;whiteSpace=wrap;rounded=0;" vertex="1" parent="1">
          <mxGeometry x="150" y="2210" width="120" height="30" as="geometry" />
        </mxCell>
        <mxCell id="kWaNI6BAeDHWGY0laoI--97" style="edgeStyle=orthogonalEdgeStyle;rounded=0;orthogonalLoop=1;jettySize=auto;html=1;entryX=1;entryY=0.5;entryDx=0;entryDy=0;" edge="1" parent="1" source="kWaNI6BAeDHWGY0laoI--98" target="kWaNI6BAeDHWGY0laoI--89">
          <mxGeometry relative="1" as="geometry" />
        </mxCell>
        <mxCell id="kWaNI6BAeDHWGY0laoI--98" value="Logistics Service" style="rounded=0;whiteSpace=wrap;html=1;" vertex="1" parent="1">
          <mxGeometry x="640" y="1965" width="120" height="60" as="geometry" />
        </mxCell>
        <mxCell id="kWaNI6BAeDHWGY0laoI--99" value="Input resi dan informasi pengiriman" style="text;html=1;strokeColor=none;fillColor=none;align=center;verticalAlign=middle;whiteSpace=wrap;rounded=0;" vertex="1" parent="1">
          <mxGeometry x="500" y="1950" width="120" height="30" as="geometry" />
        </mxCell>
        <mxCell id="kWaNI6BAeDHWGY0laoI--100" style="edgeStyle=orthogonalEdgeStyle;rounded=0;orthogonalLoop=1;jettySize=auto;html=1;" edge="1" parent="1" source="kWaNI6BAeDHWGY0laoI--103">
          <mxGeometry relative="1" as="geometry">
            <mxPoint x="700" y="2190" as="targetPoint" />
          </mxGeometry>
        </mxCell>
        <mxCell id="kWaNI6BAeDHWGY0laoI--101" style="edgeStyle=orthogonalEdgeStyle;rounded=0;orthogonalLoop=1;jettySize=auto;html=1;exitX=0;exitY=0.5;exitDx=0;exitDy=0;" edge="1" parent="1" source="kWaNI6BAeDHWGY0laoI--103">
          <mxGeometry relative="1" as="geometry">
            <mxPoint x="110" y="2200" as="targetPoint" />
          </mxGeometry>
        </mxCell>
        <mxCell id="kWaNI6BAeDHWGY0laoI--102" style="edgeStyle=orthogonalEdgeStyle;rounded=0;orthogonalLoop=1;jettySize=auto;html=1;entryX=0.5;entryY=0;entryDx=0;entryDy=0;" edge="1" parent="1" source="kWaNI6BAeDHWGY0laoI--103" target="kWaNI6BAeDHWGY0laoI--105">
          <mxGeometry relative="1" as="geometry" />
        </mxCell>
        <mxCell id="kWaNI6BAeDHWGY0laoI--103" value="Data Pengiriman" style="shape=process;whiteSpace=wrap;html=1;backgroundOutline=1;" vertex="1" parent="1">
          <mxGeometry x="300" y="2230" width="180" height="70" as="geometry" />
        </mxCell>
        <mxCell id="kWaNI6BAeDHWGY0laoI--104" value="Informasi Pemesanan&lt;br&gt;dan Pengiriman" style="text;html=1;strokeColor=none;fillColor=none;align=center;verticalAlign=middle;whiteSpace=wrap;rounded=0;" vertex="1" parent="1">
          <mxGeometry x="530" y="2210" width="120" height="30" as="geometry" />
        </mxCell>
        <mxCell id="kWaNI6BAeDHWGY0laoI--105" value="Sellers" style="rounded=0;whiteSpace=wrap;html=1;" vertex="1" parent="1">
          <mxGeometry x="330" y="2390" width="120" height="60" as="geometry" />
        </mxCell>
      </root>
    </mxGraphModel>
  </diagram>
  <diagram id="i-54-fDkED-cYP8LsFb8" name="use case ">
    <mxGraphModel dx="1615" dy="882" grid="1" gridSize="10" guides="1" tooltips="1" connect="1" arrows="1" fold="1" page="1" pageScale="1" pageWidth="850" pageHeight="1100" math="0" shadow="0">
      <root>
        <mxCell id="0" />
        <mxCell id="1" parent="0" />
        <mxCell id="O9en3I_qwXXyewcQufHZ-1" value="" style="rounded=0;whiteSpace=wrap;html=1;" vertex="1" parent="1">
          <mxGeometry x="240" y="70" width="450" height="810" as="geometry" />
        </mxCell>
        <mxCell id="O9en3I_qwXXyewcQufHZ-2" value="E-Commerce" style="text;html=1;strokeColor=none;fillColor=none;align=center;verticalAlign=middle;whiteSpace=wrap;rounded=0;" vertex="1" parent="1">
          <mxGeometry x="260" y="80" width="80" height="30" as="geometry" />
        </mxCell>
        <mxCell id="O9en3I_qwXXyewcQufHZ-3" value="Manage Product" style="ellipse;whiteSpace=wrap;html=1;" vertex="1" parent="1">
          <mxGeometry x="365" y="200" width="185" height="100" as="geometry" />
        </mxCell>
        <mxCell id="O9en3I_qwXXyewcQufHZ-5" style="endArrow=classic;html=1;rounded=0;exitX=0.5;exitY=0.5;exitDx=0;exitDy=0;exitPerimeter=0;entryX=0;entryY=0.5;entryDx=0;entryDy=0;" edge="1" parent="1" source="O9en3I_qwXXyewcQufHZ-4" target="O9en3I_qwXXyewcQufHZ-14">
          <mxGeometry relative="1" as="geometry">
            <mxPoint x="165" y="222" as="sourcePoint" />
            <mxPoint x="365" y="217" as="targetPoint" />
          </mxGeometry>
        </mxCell>
        <mxCell id="O9en3I_qwXXyewcQufHZ-4" value="Customers" style="shape=umlActor;verticalLabelPosition=bottom;verticalAlign=top;html=1;" vertex="1" parent="1">
          <mxGeometry x="60" y="280" width="55" height="110" as="geometry" />
        </mxCell>
        <mxCell id="O9en3I_qwXXyewcQufHZ-8" value="Sellers" style="shape=umlActor;verticalLabelPosition=bottom;verticalAlign=top;html=1;" vertex="1" parent="1">
          <mxGeometry x="760" y="400" width="55" height="110" as="geometry" />
        </mxCell>
        <mxCell id="O9en3I_qwXXyewcQufHZ-11" value="Make Order" style="ellipse;whiteSpace=wrap;html=1;" vertex="1" parent="1">
          <mxGeometry x="365" y="310" width="185" height="100" as="geometry" />
        </mxCell>
        <mxCell id="O9en3I_qwXXyewcQufHZ-14" value="Access Product" style="ellipse;whiteSpace=wrap;html=1;" vertex="1" parent="1">
          <mxGeometry x="365" y="90" width="185" height="100" as="geometry" />
        </mxCell>
        <mxCell id="O9en3I_qwXXyewcQufHZ-16" value="" style="endArrow=classic;html=1;rounded=0;entryX=1;entryY=0.5;entryDx=0;entryDy=0;exitX=0.5;exitY=0.5;exitDx=0;exitDy=0;exitPerimeter=0;" edge="1" parent="1" source="O9en3I_qwXXyewcQufHZ-8" target="O9en3I_qwXXyewcQufHZ-14">
          <mxGeometry width="50" height="50" relative="1" as="geometry">
            <mxPoint x="750" y="290" as="sourcePoint" />
            <mxPoint x="800" y="240" as="targetPoint" />
          </mxGeometry>
        </mxCell>
        <mxCell id="O9en3I_qwXXyewcQufHZ-17" value="Make Payment" style="ellipse;whiteSpace=wrap;html=1;" vertex="1" parent="1">
          <mxGeometry x="372.5" y="420" width="185" height="100" as="geometry" />
        </mxCell>
        <mxCell id="O9en3I_qwXXyewcQufHZ-18" style="endArrow=classic;html=1;rounded=0;exitX=0.5;exitY=0.5;exitDx=0;exitDy=0;exitPerimeter=0;entryX=0;entryY=0.5;entryDx=0;entryDy=0;" edge="1" parent="1" source="O9en3I_qwXXyewcQufHZ-4" target="O9en3I_qwXXyewcQufHZ-17">
          <mxGeometry relative="1" as="geometry">
            <mxPoint x="798" y="465" as="sourcePoint" />
            <mxPoint x="560" y="436" as="targetPoint" />
          </mxGeometry>
        </mxCell>
        <mxCell id="O9en3I_qwXXyewcQufHZ-21" value="Make delivery order" style="ellipse;whiteSpace=wrap;html=1;" vertex="1" parent="1">
          <mxGeometry x="365" y="740" width="185" height="100" as="geometry" />
        </mxCell>
        <mxCell id="O9en3I_qwXXyewcQufHZ-22" value="Logistics" style="shape=umlActor;verticalLabelPosition=bottom;verticalAlign=top;html=1;" vertex="1" parent="1">
          <mxGeometry x="30" y="710" width="55" height="110" as="geometry" />
        </mxCell>
        <mxCell id="O9en3I_qwXXyewcQufHZ-26" value="" style="endArrow=classic;html=1;rounded=0;exitX=0.459;exitY=0.494;exitDx=0;exitDy=0;exitPerimeter=0;" edge="1" parent="1" source="O9en3I_qwXXyewcQufHZ-8" target="O9en3I_qwXXyewcQufHZ-3">
          <mxGeometry width="50" height="50" relative="1" as="geometry">
            <mxPoint x="790" y="460" as="sourcePoint" />
            <mxPoint x="560" y="180" as="targetPoint" />
          </mxGeometry>
        </mxCell>
        <mxCell id="O9en3I_qwXXyewcQufHZ-27" style="endArrow=classic;html=1;rounded=0;exitX=0.5;exitY=0.5;exitDx=0;exitDy=0;exitPerimeter=0;" edge="1" parent="1" source="O9en3I_qwXXyewcQufHZ-4" target="O9en3I_qwXXyewcQufHZ-11">
          <mxGeometry relative="1" as="geometry">
            <mxPoint x="97" y="345" as="sourcePoint" />
            <mxPoint x="375" y="180" as="targetPoint" />
          </mxGeometry>
        </mxCell>
        <mxCell id="O9en3I_qwXXyewcQufHZ-28" value="Tracking order" style="ellipse;whiteSpace=wrap;html=1;" vertex="1" parent="1">
          <mxGeometry x="372.5" y="530" width="185" height="100" as="geometry" />
        </mxCell>
        <mxCell id="O9en3I_qwXXyewcQufHZ-29" style="endArrow=classic;html=1;rounded=0;exitX=0.5;exitY=0.5;exitDx=0;exitDy=0;exitPerimeter=0;entryX=0;entryY=0.5;entryDx=0;entryDy=0;" edge="1" parent="1" source="O9en3I_qwXXyewcQufHZ-4" target="O9en3I_qwXXyewcQufHZ-28">
          <mxGeometry relative="1" as="geometry">
            <mxPoint x="98" y="345" as="sourcePoint" />
            <mxPoint x="376" y="364" as="targetPoint" />
          </mxGeometry>
        </mxCell>
        <mxCell id="O9en3I_qwXXyewcQufHZ-31" value="" style="endArrow=classic;html=1;rounded=0;exitX=0.524;exitY=0.63;exitDx=0;exitDy=0;exitPerimeter=0;entryX=0;entryY=0.5;entryDx=0;entryDy=0;" edge="1" parent="1" source="O9en3I_qwXXyewcQufHZ-22" target="O9en3I_qwXXyewcQufHZ-21">
          <mxGeometry width="50" height="50" relative="1" as="geometry">
            <mxPoint x="400" y="840" as="sourcePoint" />
            <mxPoint x="450" y="790" as="targetPoint" />
          </mxGeometry>
        </mxCell>
        <mxCell id="O9en3I_qwXXyewcQufHZ-32" value="" style="endArrow=classic;html=1;rounded=0;exitX=0.5;exitY=0.5;exitDx=0;exitDy=0;exitPerimeter=0;entryX=1;entryY=0.5;entryDx=0;entryDy=0;" edge="1" parent="1" source="O9en3I_qwXXyewcQufHZ-8" target="O9en3I_qwXXyewcQufHZ-28">
          <mxGeometry width="50" height="50" relative="1" as="geometry">
            <mxPoint x="380" y="460" as="sourcePoint" />
            <mxPoint x="430" y="410" as="targetPoint" />
          </mxGeometry>
        </mxCell>
        <mxCell id="Jef99JgZSVEliaFXBlZT-1" value="Return order" style="ellipse;whiteSpace=wrap;html=1;" vertex="1" parent="1">
          <mxGeometry x="372.5" y="635" width="185" height="100" as="geometry" />
        </mxCell>
        <mxCell id="Jef99JgZSVEliaFXBlZT-2" style="endArrow=classic;html=1;rounded=0;exitX=0.5;exitY=0.5;exitDx=0;exitDy=0;exitPerimeter=0;entryX=0.029;entryY=0.32;entryDx=0;entryDy=0;entryPerimeter=0;" edge="1" parent="1" target="Jef99JgZSVEliaFXBlZT-1">
          <mxGeometry relative="1" as="geometry">
            <mxPoint x="98" y="345" as="sourcePoint" />
            <mxPoint x="382" y="590" as="targetPoint" />
          </mxGeometry>
        </mxCell>
      </root>
    </mxGraphModel>
  </diagram>
  <diagram id="ZQV_TM_6GDUA-Wv39f8g" name="activity-diagram">
    <mxGraphModel dx="550" dy="764" grid="1" gridSize="10" guides="1" tooltips="1" connect="1" arrows="1" fold="1" page="1" pageScale="1" pageWidth="850" pageHeight="1100" math="0" shadow="0">
      <root>
        <mxCell id="0" />
        <mxCell id="1" parent="0" />
        <mxCell id="0Y_aEOTmzLmGLlZ1Z_1M-19" value="Customer" style="swimlane;rounded=0;fillStyle=auto;" vertex="1" parent="1">
          <mxGeometry x="980" y="20" width="360" height="2040" as="geometry" />
        </mxCell>
        <mxCell id="0Y_aEOTmzLmGLlZ1Z_1M-24" value="" style="edgeStyle=orthogonalEdgeStyle;rounded=0;orthogonalLoop=1;jettySize=auto;html=1;" edge="1" parent="0Y_aEOTmzLmGLlZ1Z_1M-19" target="0Y_aEOTmzLmGLlZ1Z_1M-23">
          <mxGeometry relative="1" as="geometry">
            <mxPoint x="146" y="90" as="sourcePoint" />
          </mxGeometry>
        </mxCell>
        <mxCell id="0Y_aEOTmzLmGLlZ1Z_1M-22" value="" style="ellipse;html=1;shape=startState;" vertex="1" parent="0Y_aEOTmzLmGLlZ1Z_1M-19">
          <mxGeometry x="126" y="60" width="40" height="40" as="geometry" />
        </mxCell>
        <mxCell id="0Y_aEOTmzLmGLlZ1Z_1M-26" value="" style="edgeStyle=orthogonalEdgeStyle;rounded=0;orthogonalLoop=1;jettySize=auto;html=1;" edge="1" parent="0Y_aEOTmzLmGLlZ1Z_1M-19" source="0Y_aEOTmzLmGLlZ1Z_1M-23" target="0Y_aEOTmzLmGLlZ1Z_1M-25">
          <mxGeometry relative="1" as="geometry" />
        </mxCell>
        <mxCell id="0Y_aEOTmzLmGLlZ1Z_1M-23" value="Masuk aplikasi" style="whiteSpace=wrap;html=1;" vertex="1" parent="0Y_aEOTmzLmGLlZ1Z_1M-19">
          <mxGeometry x="86" y="130" width="120" height="60" as="geometry" />
        </mxCell>
        <mxCell id="0Y_aEOTmzLmGLlZ1Z_1M-25" value="Search product" style="whiteSpace=wrap;html=1;" vertex="1" parent="0Y_aEOTmzLmGLlZ1Z_1M-19">
          <mxGeometry x="86" y="220" width="120" height="60" as="geometry" />
        </mxCell>
        <mxCell id="0Y_aEOTmzLmGLlZ1Z_1M-51" value="" style="edgeStyle=orthogonalEdgeStyle;rounded=0;orthogonalLoop=1;jettySize=auto;html=1;" edge="1" parent="0Y_aEOTmzLmGLlZ1Z_1M-19" source="0Y_aEOTmzLmGLlZ1Z_1M-27" target="0Y_aEOTmzLmGLlZ1Z_1M-50">
          <mxGeometry relative="1" as="geometry" />
        </mxCell>
        <mxCell id="0Y_aEOTmzLmGLlZ1Z_1M-27" value="Pilih product" style="whiteSpace=wrap;html=1;" vertex="1" parent="0Y_aEOTmzLmGLlZ1Z_1M-19">
          <mxGeometry x="86" y="310" width="120" height="60" as="geometry" />
        </mxCell>
        <mxCell id="0Y_aEOTmzLmGLlZ1Z_1M-50" value="Klik order now" style="whiteSpace=wrap;html=1;" vertex="1" parent="0Y_aEOTmzLmGLlZ1Z_1M-19">
          <mxGeometry x="86" y="400" width="120" height="60" as="geometry" />
        </mxCell>
        <mxCell id="1eOmRFrg8AURbMVYcFl6-2" value="" style="edgeStyle=orthogonalEdgeStyle;rounded=0;orthogonalLoop=1;jettySize=auto;html=1;" edge="1" parent="0Y_aEOTmzLmGLlZ1Z_1M-19" source="0Y_aEOTmzLmGLlZ1Z_1M-56" target="1eOmRFrg8AURbMVYcFl6-1">
          <mxGeometry relative="1" as="geometry" />
        </mxCell>
        <mxCell id="0Y_aEOTmzLmGLlZ1Z_1M-56" value="Pilih metode pembayaran" style="whiteSpace=wrap;html=1;" vertex="1" parent="0Y_aEOTmzLmGLlZ1Z_1M-19">
          <mxGeometry x="86" y="490" width="120" height="60" as="geometry" />
        </mxCell>
        <mxCell id="0Y_aEOTmzLmGLlZ1Z_1M-60" value="Melakukan pembayaran" style="whiteSpace=wrap;html=1;" vertex="1" parent="0Y_aEOTmzLmGLlZ1Z_1M-19">
          <mxGeometry x="86" y="660" width="120" height="60" as="geometry" />
        </mxCell>
        <mxCell id="1eOmRFrg8AURbMVYcFl6-1" value="Checkout" style="whiteSpace=wrap;html=1;" vertex="1" parent="0Y_aEOTmzLmGLlZ1Z_1M-19">
          <mxGeometry x="86" y="570" width="120" height="60" as="geometry" />
        </mxCell>
        <mxCell id="1eOmRFrg8AURbMVYcFl6-17" value="" style="ellipse;html=1;shape=endState;fillColor=#000000;strokeColor=#000000;" vertex="1" parent="0Y_aEOTmzLmGLlZ1Z_1M-19">
          <mxGeometry x="156" y="866" width="30" height="30" as="geometry" />
        </mxCell>
        <mxCell id="Db77rCQgomNblJAQZ7Y2-4" value="Permintaan Return barang" style="whiteSpace=wrap;html=1;" vertex="1" parent="0Y_aEOTmzLmGLlZ1Z_1M-19">
          <mxGeometry x="80" y="1439" width="120" height="60" as="geometry" />
        </mxCell>
        <mxCell id="Db77rCQgomNblJAQZ7Y2-9" value="Memproses return barang" style="whiteSpace=wrap;html=1;" vertex="1" parent="0Y_aEOTmzLmGLlZ1Z_1M-19">
          <mxGeometry x="81" y="1518" width="120" height="60" as="geometry" />
        </mxCell>
        <mxCell id="Db77rCQgomNblJAQZ7Y2-26" value="" style="ellipse;html=1;shape=endState;fillColor=#000000;strokeColor=#000000;" vertex="1" parent="0Y_aEOTmzLmGLlZ1Z_1M-19">
          <mxGeometry x="126" y="1794" width="30" height="30" as="geometry" />
        </mxCell>
        <mxCell id="0Y_aEOTmzLmGLlZ1Z_1M-20" value="Seller" style="swimlane;rounded=0;fillStyle=auto;" vertex="1" parent="1">
          <mxGeometry x="1550" y="20" width="210" height="2040" as="geometry" />
        </mxCell>
        <mxCell id="0Y_aEOTmzLmGLlZ1Z_1M-66" value="Memproses pesanan" style="whiteSpace=wrap;html=1;" vertex="1" parent="0Y_aEOTmzLmGLlZ1Z_1M-20">
          <mxGeometry x="41" y="967" width="120" height="60" as="geometry" />
        </mxCell>
        <mxCell id="1eOmRFrg8AURbMVYcFl6-13" style="edgeStyle=orthogonalEdgeStyle;rounded=0;orthogonalLoop=1;jettySize=auto;html=1;entryX=0.5;entryY=0;entryDx=0;entryDy=0;" edge="1" parent="0Y_aEOTmzLmGLlZ1Z_1M-20" source="1eOmRFrg8AURbMVYcFl6-7" target="0Y_aEOTmzLmGLlZ1Z_1M-66">
          <mxGeometry relative="1" as="geometry" />
        </mxCell>
        <mxCell id="Db77rCQgomNblJAQZ7Y2-31" value="Ya" style="edgeLabel;html=1;align=center;verticalAlign=middle;resizable=0;points=[];" vertex="1" connectable="0" parent="1eOmRFrg8AURbMVYcFl6-13">
          <mxGeometry x="-0.6814" relative="1" as="geometry">
            <mxPoint as="offset" />
          </mxGeometry>
        </mxCell>
        <mxCell id="1eOmRFrg8AURbMVYcFl6-7" value="terima pesanan ?" style="rhombus;whiteSpace=wrap;html=1;" vertex="1" parent="0Y_aEOTmzLmGLlZ1Z_1M-20">
          <mxGeometry x="41" y="841" width="120" height="80" as="geometry" />
        </mxCell>
        <mxCell id="Db77rCQgomNblJAQZ7Y2-17" value="" style="ellipse;html=1;shape=endState;fillColor=#000000;strokeColor=#000000;" vertex="1" parent="0Y_aEOTmzLmGLlZ1Z_1M-20">
          <mxGeometry x="90" y="1375" width="30" height="30" as="geometry" />
        </mxCell>
        <mxCell id="0Y_aEOTmzLmGLlZ1Z_1M-21" value="Logistics Service" style="swimlane;rounded=0;fillStyle=auto;" vertex="1" parent="1">
          <mxGeometry x="1760" y="20" width="200" height="2040" as="geometry" />
        </mxCell>
        <mxCell id="0Y_aEOTmzLmGLlZ1Z_1M-71" value="" style="edgeStyle=orthogonalEdgeStyle;rounded=0;orthogonalLoop=1;jettySize=auto;html=1;" edge="1" parent="0Y_aEOTmzLmGLlZ1Z_1M-21" source="0Y_aEOTmzLmGLlZ1Z_1M-68" target="0Y_aEOTmzLmGLlZ1Z_1M-70">
          <mxGeometry relative="1" as="geometry" />
        </mxCell>
        <mxCell id="0Y_aEOTmzLmGLlZ1Z_1M-68" value="Menerima data pengiriman pesanan" style="whiteSpace=wrap;html=1;" vertex="1" parent="0Y_aEOTmzLmGLlZ1Z_1M-21">
          <mxGeometry x="50" y="967" width="120" height="60" as="geometry" />
        </mxCell>
        <mxCell id="0Y_aEOTmzLmGLlZ1Z_1M-70" value="Mengirim pesanan" style="whiteSpace=wrap;html=1;" vertex="1" parent="0Y_aEOTmzLmGLlZ1Z_1M-21">
          <mxGeometry x="50" y="1092" width="120" height="60" as="geometry" />
        </mxCell>
        <mxCell id="Db77rCQgomNblJAQZ7Y2-19" value="Memproses pengiriman" style="whiteSpace=wrap;html=1;" vertex="1" parent="0Y_aEOTmzLmGLlZ1Z_1M-21">
          <mxGeometry x="40" y="1572" width="120" height="60" as="geometry" />
        </mxCell>
        <mxCell id="0Y_aEOTmzLmGLlZ1Z_1M-40" value="System e-commerce" style="swimlane;rounded=0;fillStyle=auto;" vertex="1" parent="1">
          <mxGeometry x="1340" y="20" width="210" height="2040" as="geometry" />
        </mxCell>
        <mxCell id="0Y_aEOTmzLmGLlZ1Z_1M-41" value="Search product" style="whiteSpace=wrap;html=1;" vertex="1" parent="0Y_aEOTmzLmGLlZ1Z_1M-40">
          <mxGeometry x="40" y="220" width="120" height="60" as="geometry" />
        </mxCell>
        <mxCell id="0Y_aEOTmzLmGLlZ1Z_1M-54" value="Menampilkan halaman order" style="whiteSpace=wrap;html=1;" vertex="1" parent="0Y_aEOTmzLmGLlZ1Z_1M-40">
          <mxGeometry x="40" y="400" width="120" height="60" as="geometry" />
        </mxCell>
        <mxCell id="0Y_aEOTmzLmGLlZ1Z_1M-58" value="Menampilkan cara pembayaran" style="whiteSpace=wrap;html=1;" vertex="1" parent="0Y_aEOTmzLmGLlZ1Z_1M-40">
          <mxGeometry x="40" y="570" width="120" height="60" as="geometry" />
        </mxCell>
        <mxCell id="0Y_aEOTmzLmGLlZ1Z_1M-64" value="Mengrim informasi pesanan" style="whiteSpace=wrap;html=1;" vertex="1" parent="0Y_aEOTmzLmGLlZ1Z_1M-40">
          <mxGeometry x="45" y="767" width="120" height="60" as="geometry" />
        </mxCell>
        <mxCell id="1eOmRFrg8AURbMVYcFl6-15" value="pengembalian dana" style="whiteSpace=wrap;html=1;" vertex="1" parent="0Y_aEOTmzLmGLlZ1Z_1M-40">
          <mxGeometry x="45" y="851" width="120" height="60" as="geometry" />
        </mxCell>
        <mxCell id="Db77rCQgomNblJAQZ7Y2-7" value="update status pesanan dan pengiriman" style="whiteSpace=wrap;html=1;" vertex="1" parent="0Y_aEOTmzLmGLlZ1Z_1M-40">
          <mxGeometry x="45" y="1439" width="120" height="60" as="geometry" />
        </mxCell>
        <mxCell id="Db77rCQgomNblJAQZ7Y2-30" style="edgeStyle=orthogonalEdgeStyle;rounded=0;orthogonalLoop=1;jettySize=auto;html=1;" edge="1" parent="0Y_aEOTmzLmGLlZ1Z_1M-40" source="Db77rCQgomNblJAQZ7Y2-11" target="Db77rCQgomNblJAQZ7Y2-16">
          <mxGeometry relative="1" as="geometry" />
        </mxCell>
        <mxCell id="Db77rCQgomNblJAQZ7Y2-11" value="menyelesaikan pesanan" style="whiteSpace=wrap;html=1;" vertex="1" parent="0Y_aEOTmzLmGLlZ1Z_1M-40">
          <mxGeometry x="45" y="1260" width="120" height="60" as="geometry" />
        </mxCell>
        <mxCell id="Db77rCQgomNblJAQZ7Y2-16" value="menambah saldo seller" style="whiteSpace=wrap;html=1;" vertex="1" parent="0Y_aEOTmzLmGLlZ1Z_1M-40">
          <mxGeometry x="45" y="1360" width="120" height="60" as="geometry" />
        </mxCell>
        <mxCell id="Db77rCQgomNblJAQZ7Y2-25" value="" style="edgeStyle=orthogonalEdgeStyle;rounded=0;orthogonalLoop=1;jettySize=auto;html=1;" edge="1" parent="0Y_aEOTmzLmGLlZ1Z_1M-40" source="Db77rCQgomNblJAQZ7Y2-22" target="Db77rCQgomNblJAQZ7Y2-24">
          <mxGeometry relative="1" as="geometry" />
        </mxCell>
        <mxCell id="Db77rCQgomNblJAQZ7Y2-22" value="update status pesanan dan pengiriman" style="whiteSpace=wrap;html=1;" vertex="1" parent="0Y_aEOTmzLmGLlZ1Z_1M-40">
          <mxGeometry x="45" y="1658" width="120" height="60" as="geometry" />
        </mxCell>
        <mxCell id="Db77rCQgomNblJAQZ7Y2-24" value="melakukan pengembalian dana" style="whiteSpace=wrap;html=1;" vertex="1" parent="0Y_aEOTmzLmGLlZ1Z_1M-40">
          <mxGeometry x="45" y="1780" width="120" height="60" as="geometry" />
        </mxCell>
        <mxCell id="0Y_aEOTmzLmGLlZ1Z_1M-42" value="" style="edgeStyle=orthogonalEdgeStyle;rounded=0;orthogonalLoop=1;jettySize=auto;html=1;" edge="1" parent="1" source="0Y_aEOTmzLmGLlZ1Z_1M-25" target="0Y_aEOTmzLmGLlZ1Z_1M-41">
          <mxGeometry relative="1" as="geometry" />
        </mxCell>
        <mxCell id="0Y_aEOTmzLmGLlZ1Z_1M-43" style="edgeStyle=orthogonalEdgeStyle;rounded=0;orthogonalLoop=1;jettySize=auto;html=1;entryX=1;entryY=0.5;entryDx=0;entryDy=0;" edge="1" parent="1" source="0Y_aEOTmzLmGLlZ1Z_1M-41" target="0Y_aEOTmzLmGLlZ1Z_1M-27">
          <mxGeometry relative="1" as="geometry">
            <Array as="points">
              <mxPoint x="1440" y="360" />
            </Array>
          </mxGeometry>
        </mxCell>
        <mxCell id="0Y_aEOTmzLmGLlZ1Z_1M-55" value="" style="edgeStyle=orthogonalEdgeStyle;rounded=0;orthogonalLoop=1;jettySize=auto;html=1;" edge="1" parent="1" source="0Y_aEOTmzLmGLlZ1Z_1M-50" target="0Y_aEOTmzLmGLlZ1Z_1M-54">
          <mxGeometry relative="1" as="geometry" />
        </mxCell>
        <mxCell id="0Y_aEOTmzLmGLlZ1Z_1M-57" value="" style="edgeStyle=orthogonalEdgeStyle;rounded=0;orthogonalLoop=1;jettySize=auto;html=1;" edge="1" parent="1" source="0Y_aEOTmzLmGLlZ1Z_1M-54" target="0Y_aEOTmzLmGLlZ1Z_1M-56">
          <mxGeometry relative="1" as="geometry">
            <Array as="points">
              <mxPoint x="1440" y="540" />
            </Array>
          </mxGeometry>
        </mxCell>
        <mxCell id="0Y_aEOTmzLmGLlZ1Z_1M-69" value="" style="edgeStyle=orthogonalEdgeStyle;rounded=0;orthogonalLoop=1;jettySize=auto;html=1;" edge="1" parent="1" source="0Y_aEOTmzLmGLlZ1Z_1M-66" target="0Y_aEOTmzLmGLlZ1Z_1M-68">
          <mxGeometry relative="1" as="geometry" />
        </mxCell>
        <mxCell id="0Y_aEOTmzLmGLlZ1Z_1M-73" value="" style="edgeStyle=orthogonalEdgeStyle;rounded=0;orthogonalLoop=1;jettySize=auto;html=1;" edge="1" parent="1" source="0Y_aEOTmzLmGLlZ1Z_1M-70" target="0Y_aEOTmzLmGLlZ1Z_1M-72">
          <mxGeometry relative="1" as="geometry" />
        </mxCell>
        <mxCell id="1eOmRFrg8AURbMVYcFl6-3" style="edgeStyle=orthogonalEdgeStyle;rounded=0;orthogonalLoop=1;jettySize=auto;html=1;entryX=0;entryY=0.5;entryDx=0;entryDy=0;" edge="1" parent="1" source="1eOmRFrg8AURbMVYcFl6-1" target="0Y_aEOTmzLmGLlZ1Z_1M-58">
          <mxGeometry relative="1" as="geometry" />
        </mxCell>
        <mxCell id="1eOmRFrg8AURbMVYcFl6-4" style="edgeStyle=orthogonalEdgeStyle;rounded=0;orthogonalLoop=1;jettySize=auto;html=1;entryX=1;entryY=0.5;entryDx=0;entryDy=0;" edge="1" parent="1" source="0Y_aEOTmzLmGLlZ1Z_1M-58" target="0Y_aEOTmzLmGLlZ1Z_1M-60">
          <mxGeometry relative="1" as="geometry">
            <Array as="points">
              <mxPoint x="1440" y="710" />
            </Array>
          </mxGeometry>
        </mxCell>
        <mxCell id="1eOmRFrg8AURbMVYcFl6-5" style="edgeStyle=orthogonalEdgeStyle;rounded=0;orthogonalLoop=1;jettySize=auto;html=1;entryX=0;entryY=0.5;entryDx=0;entryDy=0;" edge="1" parent="1" source="0Y_aEOTmzLmGLlZ1Z_1M-60" target="0Y_aEOTmzLmGLlZ1Z_1M-64">
          <mxGeometry relative="1" as="geometry">
            <Array as="points">
              <mxPoint x="1126" y="817" />
            </Array>
          </mxGeometry>
        </mxCell>
        <mxCell id="0Y_aEOTmzLmGLlZ1Z_1M-72" value="update status pesanan dan pengiriman" style="whiteSpace=wrap;html=1;" vertex="1" parent="1">
          <mxGeometry x="1385" y="1112" width="120" height="60" as="geometry" />
        </mxCell>
        <mxCell id="1eOmRFrg8AURbMVYcFl6-14" style="edgeStyle=orthogonalEdgeStyle;rounded=0;orthogonalLoop=1;jettySize=auto;html=1;entryX=0.5;entryY=0;entryDx=0;entryDy=0;" edge="1" parent="1" source="0Y_aEOTmzLmGLlZ1Z_1M-64" target="1eOmRFrg8AURbMVYcFl6-7">
          <mxGeometry relative="1" as="geometry" />
        </mxCell>
        <mxCell id="1eOmRFrg8AURbMVYcFl6-16" style="edgeStyle=orthogonalEdgeStyle;rounded=0;orthogonalLoop=1;jettySize=auto;html=1;entryX=1;entryY=0.5;entryDx=0;entryDy=0;" edge="1" parent="1" source="1eOmRFrg8AURbMVYcFl6-7" target="1eOmRFrg8AURbMVYcFl6-15">
          <mxGeometry relative="1" as="geometry" />
        </mxCell>
        <mxCell id="Db77rCQgomNblJAQZ7Y2-32" value="Tidak" style="edgeLabel;html=1;align=center;verticalAlign=middle;resizable=0;points=[];" vertex="1" connectable="0" parent="1eOmRFrg8AURbMVYcFl6-16">
          <mxGeometry x="-0.6828" y="1" relative="1" as="geometry">
            <mxPoint x="-3" as="offset" />
          </mxGeometry>
        </mxCell>
        <mxCell id="1eOmRFrg8AURbMVYcFl6-20" style="edgeStyle=orthogonalEdgeStyle;rounded=0;orthogonalLoop=1;jettySize=auto;html=1;entryX=1;entryY=0.5;entryDx=0;entryDy=0;" edge="1" parent="1" source="1eOmRFrg8AURbMVYcFl6-15" target="1eOmRFrg8AURbMVYcFl6-17">
          <mxGeometry relative="1" as="geometry" />
        </mxCell>
        <mxCell id="Db77rCQgomNblJAQZ7Y2-1" value="" style="endArrow=none;dashed=1;html=1;dashPattern=1 3;strokeWidth=2;rounded=0;" edge="1" parent="1">
          <mxGeometry width="50" height="50" relative="1" as="geometry">
            <mxPoint x="980" y="1240" as="sourcePoint" />
            <mxPoint x="1960" y="1240" as="targetPoint" />
          </mxGeometry>
        </mxCell>
        <mxCell id="Db77rCQgomNblJAQZ7Y2-6" value="" style="edgeStyle=orthogonalEdgeStyle;rounded=0;orthogonalLoop=1;jettySize=auto;html=1;" edge="1" parent="1" source="Db77rCQgomNblJAQZ7Y2-2" target="Db77rCQgomNblJAQZ7Y2-4">
          <mxGeometry relative="1" as="geometry" />
        </mxCell>
        <mxCell id="Db77rCQgomNblJAQZ7Y2-29" value="Tidak" style="edgeLabel;html=1;align=center;verticalAlign=middle;resizable=0;points=[];" vertex="1" connectable="0" parent="Db77rCQgomNblJAQZ7Y2-6">
          <mxGeometry x="-0.6909" relative="1" as="geometry">
            <mxPoint as="offset" />
          </mxGeometry>
        </mxCell>
        <mxCell id="Db77rCQgomNblJAQZ7Y2-12" style="edgeStyle=orthogonalEdgeStyle;rounded=0;orthogonalLoop=1;jettySize=auto;html=1;entryX=0;entryY=0.5;entryDx=0;entryDy=0;" edge="1" parent="1" source="Db77rCQgomNblJAQZ7Y2-2" target="Db77rCQgomNblJAQZ7Y2-11">
          <mxGeometry relative="1" as="geometry" />
        </mxCell>
        <mxCell id="Db77rCQgomNblJAQZ7Y2-28" value="Ya" style="edgeLabel;html=1;align=center;verticalAlign=middle;resizable=0;points=[];" vertex="1" connectable="0" parent="Db77rCQgomNblJAQZ7Y2-12">
          <mxGeometry x="-0.8029" y="-1" relative="1" as="geometry">
            <mxPoint as="offset" />
          </mxGeometry>
        </mxCell>
        <mxCell id="Db77rCQgomNblJAQZ7Y2-2" value="terima barang ?" style="rhombus;whiteSpace=wrap;html=1;" vertex="1" parent="1">
          <mxGeometry x="1060" y="1270" width="120" height="80" as="geometry" />
        </mxCell>
        <mxCell id="Db77rCQgomNblJAQZ7Y2-8" style="edgeStyle=orthogonalEdgeStyle;rounded=0;orthogonalLoop=1;jettySize=auto;html=1;entryX=0;entryY=0.5;entryDx=0;entryDy=0;" edge="1" parent="1" source="Db77rCQgomNblJAQZ7Y2-4" target="Db77rCQgomNblJAQZ7Y2-7">
          <mxGeometry relative="1" as="geometry" />
        </mxCell>
        <mxCell id="Db77rCQgomNblJAQZ7Y2-10" style="edgeStyle=orthogonalEdgeStyle;rounded=0;orthogonalLoop=1;jettySize=auto;html=1;entryX=1;entryY=0.5;entryDx=0;entryDy=0;" edge="1" parent="1" source="Db77rCQgomNblJAQZ7Y2-7" target="Db77rCQgomNblJAQZ7Y2-9">
          <mxGeometry relative="1" as="geometry">
            <Array as="points">
              <mxPoint x="1450" y="1568" />
            </Array>
          </mxGeometry>
        </mxCell>
        <mxCell id="Db77rCQgomNblJAQZ7Y2-18" style="edgeStyle=orthogonalEdgeStyle;rounded=0;orthogonalLoop=1;jettySize=auto;html=1;entryX=0;entryY=0.5;entryDx=0;entryDy=0;" edge="1" parent="1" source="Db77rCQgomNblJAQZ7Y2-16" target="Db77rCQgomNblJAQZ7Y2-17">
          <mxGeometry relative="1" as="geometry" />
        </mxCell>
        <mxCell id="Db77rCQgomNblJAQZ7Y2-21" style="edgeStyle=orthogonalEdgeStyle;rounded=0;orthogonalLoop=1;jettySize=auto;html=1;entryX=0;entryY=0.5;entryDx=0;entryDy=0;" edge="1" parent="1" source="Db77rCQgomNblJAQZ7Y2-9" target="Db77rCQgomNblJAQZ7Y2-19">
          <mxGeometry relative="1" as="geometry">
            <Array as="points">
              <mxPoint x="1121" y="1622" />
            </Array>
          </mxGeometry>
        </mxCell>
        <mxCell id="Db77rCQgomNblJAQZ7Y2-23" style="edgeStyle=orthogonalEdgeStyle;rounded=0;orthogonalLoop=1;jettySize=auto;html=1;entryX=1;entryY=0.5;entryDx=0;entryDy=0;" edge="1" parent="1" source="Db77rCQgomNblJAQZ7Y2-19" target="Db77rCQgomNblJAQZ7Y2-22">
          <mxGeometry relative="1" as="geometry">
            <Array as="points">
              <mxPoint x="1860" y="1708" />
            </Array>
          </mxGeometry>
        </mxCell>
        <mxCell id="Db77rCQgomNblJAQZ7Y2-27" style="edgeStyle=orthogonalEdgeStyle;rounded=0;orthogonalLoop=1;jettySize=auto;html=1;entryX=1;entryY=0.5;entryDx=0;entryDy=0;" edge="1" parent="1" source="Db77rCQgomNblJAQZ7Y2-24" target="Db77rCQgomNblJAQZ7Y2-26">
          <mxGeometry relative="1" as="geometry" />
        </mxCell>
      </root>
    </mxGraphModel>
  </diagram>
</mxfile>
